<svg xmlns="http://www.w3.org/2000/svg" xmlns:xlink="http://www.w3.org/1999/xlink" contentStyleType="text/css" data-diagram-type="SEQUENCE" height="842px" preserveAspectRatio="none" style="width:601px;height:842px;background:#FFFFFF;" version="1.1" viewBox="0 0 601 842" width="601px" zoomAndPan="magnify"><?plantuml 1.2026.3beta6?><defs/><g><g class="title" data-source-line="1"><text fill="#000000" font-family="sans-serif" font-size="14" font-weight="700" lengthAdjust="spacing" textLength="314.2959" x="140.0969" y="27.9951">PowGo Protected Resource Access Flow</text></g><g class="participant-lifeline" data-entity-uid="part1" data-qualified-name="C" data-source-line="3" id="part1-lifeline"><g><title>Client</title><rect fill="#000000" fill-opacity="0.00000" height="641.9219" width="8" x="24.2651" y="118.5938"/><line style="stroke:#181818;stroke-width:0.5;stroke-dasharray:5,5;" x1="28" x2="28" y1="118.5938" y2="760.5156"/></g></g><g class="participant-lifeline" data-entity-uid="part2" data-qualified-name="P" data-source-line="4" id="part2-lifeline"><g><title>PowGo</title><rect fill="#000000" fill-opacity="0.00000" height="641.9219" width="8" x="312.8291" y="118.5938"/><line style="stroke:#181818;stroke-width:0.5;stroke-dasharray:5,5;" x1="315.8931" x2="315.8931" y1="118.5938" y2="760.5156"/></g></g><g class="participant-lifeline" data-entity-uid="part3" data-qualified-name="U" data-source-line="5" id="part3-lifeline"><g><title>Upstream Server</title><rect fill="#000000" fill-opacity="0.00000" height="641.9219" width="8" x="520.0581" y="118.5938"/><line style="stroke:#181818;stroke-width:0.5;stroke-dasharray:5,5;" x1="523.6265" x2="523.6265" y1="118.5938" y2="760.5156"/></g></g><g class="participant participant-head" data-entity-uid="part1" data-qualified-name="C" data-source-line="3" id="part1-head"><text fill="#000000" font-family="sans-serif" font-size="14" lengthAdjust="spacing" textLength="40.5303" x="5" y="115.292">Client</text><ellipse cx="28.2651" cy="50.7969" fill="#E2E2F0" rx="8" ry="8" style="stroke:#181818;stroke-width:0.5;"/><path d="M28.2651,58.7969 L28.2651,85.7969 M15.2651,66.7969 L41.2651,66.7969 M28.2651,85.7969 L15.2651,100.7969 M28.2651,85.7969 L41.2651,100.7969" fill="none" style="stroke:#181818;stroke-width:0.5;"/></g><g class="participant participant-tail" data-entity-uid="part1" data-qualified-name="C" data-source-line="3" id="part1-tail"><text fill="#000000" font-family="sans-serif" font-size="14" lengthAdjust="spacing" textLength="40.5303" x="5" y="772.5107">Client</text><ellipse cx="28.2651" cy="784.3125" fill="#E2E2F0" rx="8" ry="8" style="stroke:#181818;stroke-width:0.5;"/><path d="M28.2651,792.3125 L28.2651,819.3125 M15.2651,800.3125 L41.2651,800.3125 M28.2651,819.3125 L15.2651,834.3125 M28.2651,819.3125 L41.2651,834.3125" fill="none" style="stroke:#181818;stroke-width:0.5;"/></g><g class="participant participant-head" data-entity-uid="part2" data-qualified-name="P" data-source-line="4" id="part2-head"><rect fill="#E2E2F0" height="30.2969" rx="2.5" ry="2.5" style="stroke:#181818;stroke-width:0.5;" width="61.8721" x="285.8931" y="87.2969"/><text fill="#000000" font-family="sans-serif" font-size="14" lengthAdjust="spacing" textLength="47.8721" x="292.8931" y="107.292">PowGo</text></g><g class="participant participant-tail" data-entity-uid="part2" data-qualified-name="P" data-source-line="4" id="part2-tail"><rect fill="#E2E2F0" height="30.2969" rx="2.5" ry="2.5" style="stroke:#181818;stroke-width:0.5;" width="61.8721" x="285.8931" y="759.5156"/><text fill="#000000" font-family="sans-serif" font-size="14" lengthAdjust="spacing" textLength="47.8721" x="292.8931" y="779.5107">PowGo</text></g><g class="participant participant-head" data-entity-uid="part3" data-qualified-name="U" data-source-line="5" id="part3-head"><rect fill="#E2E2F0" height="30.2969" rx="2.5" ry="2.5" style="stroke:#181818;stroke-width:0.5;" width="132.8633" x="457.6265" y="87.2969"/><text fill="#000000" font-family="sans-serif" font-size="14" lengthAdjust="spacing" textLength="118.8633" x="464.6265" y="107.292">Upstream Server</text></g><g class="participant participant-tail" data-entity-uid="part3" data-qualified-name="U" data-source-line="5" id="part3-tail"><rect fill="#E2E2F0" height="30.2969" rx="2.5" ry="2.5" style="stroke:#181818;stroke-width:0.5;" width="132.8633" x="457.6265" y="759.5156"/><text fill="#000000" font-family="sans-serif" font-size="14" lengthAdjust="spacing" textLength="118.8633" x="464.6265" y="779.5107">Upstream Server</text></g><rect fill="#EEEEEE" height="3" style="stroke:#EEEEEE;stroke-width:1;" width="595.4897" x="0" y="149.1602"/><line style="stroke:#000000;stroke-width:1;" x1="0" x2="595.4897" y1="149.1602" y2="149.1602"/><line style="stroke:#000000;stroke-width:1;" x1="0" x2="595.4897" y1="152.1602" y2="152.1602"/><rect fill="#EEEEEE" height="23.1328" style="stroke:#000000;stroke-width:2;" width="213.5894" x="190.9502" y="138.5938"/><text fill="#000000" font-family="sans-serif" font-size="13" font-weight="700" lengthAdjust="spacing" textLength="195.0635" x="196.9502" y="154.6606">Initial Request (No Puzzle)</text><g class="message" data-entity-1="part1" data-entity-2="part2" data-source-line="9" id="msg1"><polygon fill="#181818" points="304.8291,203.9922,314.8291,207.9922,304.8291,211.9922,308.8291,207.9922" style="stroke:#181818;stroke-width:1;"/><line style="stroke:#181818;stroke-width:1;" x1="28.2651" x2="310.8291" y1="207.9922" y2="207.9922"/><text fill="#000000" font-family="sans-serif" font-size="13" lengthAdjust="spacing" textLength="181.5938" x="35.2651" y="187.7935">Request protected resource</text><text fill="#000000" font-family="sans-serif" font-size="13" lengthAdjust="spacing" textLength="160.5068" x="35.2651" y="202.9263">(without puzzle solution)</text></g><path d="M33,220.9922 L33,245.9922 L233,245.9922 L233,230.9922 L223,220.9922 L33,220.9922" fill="#FEFFDD" style="stroke:#181818;stroke-width:0.5;"/><path d="M223,220.9922 L223,230.9922 L233,230.9922 L223,220.9922" fill="#FEFFDD" style="stroke:#181818;stroke-width:0.5;"/><text fill="#000000" font-family="sans-serif" font-size="13" lengthAdjust="spacing" textLength="179.1436" x="39" y="238.0591">No nonce/solution attached</text><g class="message" data-entity-1="part2" data-entity-2="part1" data-source-line="12" id="msg2"><polygon fill="#181818" points="39.2651,298.5234,29.2651,302.5234,39.2651,306.5234,35.2651,302.5234" style="stroke:#181818;stroke-width:1;"/><line style="stroke:#181818;stroke-width:1;stroke-dasharray:2,2;" x1="33.2651" x2="315.8291" y1="302.5234" y2="302.5234"/><text fill="#000000" font-family="sans-serif" font-size="13" lengthAdjust="spacing" textLength="176.5664" x="45.2651" y="267.1919">Status Code 299 (Warning)</text><text fill="#000000" font-family="sans-serif" font-size="13" lengthAdjust="spacing" textLength="204.7119" x="45.2651" y="282.3247">Puzzle: "Find nonce that makes</text><text fill="#000000" font-family="sans-serif" font-size="13" lengthAdjust="spacing" textLength="264.564" x="45.2651" y="297.4575">SHA256 hash start with specific pattern"</text></g><path d="M321,315.5234 L321,340.5234 L564,340.5234 L564,325.5234 L554,315.5234 L321,315.5234" fill="#FEFFDD" style="stroke:#181818;stroke-width:0.5;"/><path d="M554,315.5234 L554,325.5234 L564,325.5234 L554,315.5234" fill="#FEFFDD" style="stroke:#181818;stroke-width:0.5;"/><text fill="#000000" font-family="sans-serif" font-size="13" lengthAdjust="spacing" textLength="222.8091" x="327" y="332.5903">Challenge includes data &amp; pattern</text><rect fill="#EEEEEE" height="3" style="stroke:#EEEEEE;stroke-width:1;" width="595.4897" x="0" y="366.2227"/><line style="stroke:#000000;stroke-width:1;" x1="0" x2="595.4897" y1="366.2227" y2="366.2227"/><line style="stroke:#000000;stroke-width:1;" x1="0" x2="595.4897" y1="369.2227" y2="369.2227"/><rect fill="#EEEEEE" height="23.1328" style="stroke:#000000;stroke-width:2;" width="165.2837" x="215.103" y="355.6563"/><text fill="#000000" font-family="sans-serif" font-size="13" font-weight="700" lengthAdjust="spacing" textLength="146.7578" x="221.103" y="371.7231">Client Solves Puzzle</text><g class="message" data-entity-1="part1" data-entity-2="part1" data-source-line="17" id="msg3"><line style="stroke:#181818;stroke-width:1;" x1="28.2651" x2="70.2651" y1="425.0547" y2="425.0547"/><line style="stroke:#181818;stroke-width:1;" x1="70.2651" x2="70.2651" y1="425.0547" y2="438.0547"/><line style="stroke:#181818;stroke-width:1;" x1="29.2651" x2="70.2651" y1="438.0547" y2="438.0547"/><polygon fill="#181818" points="39.2651,434.0547,29.2651,438.0547,39.2651,442.0547,35.2651,438.0547" style="stroke:#181818;stroke-width:1;"/><text fill="#000000" font-family="sans-serif" font-size="13" lengthAdjust="spacing" textLength="170.9106" x="35.2651" y="404.856">Find nonce via brute force</text><text fill="#000000" font-family="sans-serif" font-size="13" lengthAdjust="spacing" textLength="139.5342" x="35.2651" y="419.9888">(computational work)</text></g><rect fill="#EEEEEE" height="3" style="stroke:#EEEEEE;stroke-width:1;" width="595.4897" x="0" y="466.6211"/><line style="stroke:#000000;stroke-width:1;" x1="0" x2="595.4897" y1="466.6211" y2="466.6211"/><line style="stroke:#000000;stroke-width:1;" x1="0" x2="595.4897" y1="469.6211" y2="469.6211"/><rect fill="#EEEEEE" height="23.1328" style="stroke:#000000;stroke-width:2;" width="160.3008" x="217.5945" y="456.0547"/><text fill="#000000" font-family="sans-serif" font-size="13" font-weight="700" lengthAdjust="spacing" textLength="141.7749" x="223.5945" y="472.1216">Retry with Solution</text><g class="message" data-entity-1="part1" data-entity-2="part2" data-source-line="21" id="msg4"><polygon fill="#181818" points="304.8291,521.4531,314.8291,525.4531,304.8291,529.4531,308.8291,525.4531" style="stroke:#181818;stroke-width:1;"/><line style="stroke:#181818;stroke-width:1;" x1="28.2651" x2="310.8291" y1="525.4531" y2="525.4531"/><text fill="#000000" font-family="sans-serif" font-size="13" lengthAdjust="spacing" textLength="141.7241" x="35.2651" y="505.2544">Retry original request</text><text fill="#000000" font-family="sans-serif" font-size="13" lengthAdjust="spacing" textLength="182.2539" x="35.2651" y="520.3872">+ solution (nonce attached)</text></g><g class="message" data-entity-1="part2" data-entity-2="part2" data-source-line="23" id="msg5"><line style="stroke:#181818;stroke-width:1;" x1="316.8291" x2="358.8291" y1="569.7188" y2="569.7188"/><line style="stroke:#181818;stroke-width:1;" x1="358.8291" x2="358.8291" y1="569.7188" y2="582.7188"/><line style="stroke:#181818;stroke-width:1;" x1="317.8291" x2="358.8291" y1="582.7188" y2="582.7188"/><polygon fill="#181818" points="327.8291,578.7188,317.8291,582.7188,327.8291,586.7188,323.8291,582.7188" style="stroke:#181818;stroke-width:1;"/><text fill="#000000" font-family="sans-serif" font-size="13" lengthAdjust="spacing" textLength="137.4395" x="323.8291" y="549.52">Verify nonce solution</text><text fill="#000000" font-family="sans-serif" font-size="13" lengthAdjust="spacing" textLength="193.229" x="323.8291" y="564.6528">Check SHA256 pattern match</text></g><g class="message" data-entity-1="part2" data-entity-2="part2" data-source-line="25" id="msg6"><line style="stroke:#181818;stroke-width:1;" x1="316.8291" x2="358.8291" y1="626.9844" y2="626.9844"/><line style="stroke:#181818;stroke-width:1;" x1="358.8291" x2="358.8291" y1="626.9844" y2="639.9844"/><line style="stroke:#181818;stroke-width:1;" x1="317.8291" x2="358.8291" y1="639.9844" y2="639.9844"/><polygon fill="#181818" points="327.8291,635.9844,317.8291,639.9844,327.8291,643.9844,323.8291,639.9844" style="stroke:#181818;stroke-width:1;"/><text fill="#000000" font-family="sans-serif" font-size="13" lengthAdjust="spacing" textLength="119.4058" x="323.8291" y="606.7856">Cache valid nonce</text><text fill="#000000" font-family="sans-serif" font-size="13" lengthAdjust="spacing" textLength="130.5078" x="323.8291" y="621.9185">(short time window)</text></g><g class="message" data-entity-1="part2" data-entity-2="part3" data-source-line="27" id="msg7"><polygon fill="#181818" points="512.0581,680.25,522.0581,684.25,512.0581,688.25,516.0581,684.25" style="stroke:#181818;stroke-width:1;"/><line style="stroke:#181818;stroke-width:1;" x1="316.8291" x2="518.0581" y1="684.25" y2="684.25"/><text fill="#000000" font-family="sans-serif" font-size="13" lengthAdjust="spacing" textLength="156.8252" x="323.8291" y="664.0513">Proxy request upstream</text><text fill="#000000" font-family="sans-serif" font-size="13" lengthAdjust="spacing" textLength="144.3521" x="323.8291" y="679.1841">(with original content)</text></g><g class="message" data-entity-1="part3" data-entity-2="part2" data-source-line="29" id="msg8"><polygon fill="#181818" points="327.8291,709.3828,317.8291,713.3828,327.8291,717.3828,323.8291,713.3828" style="stroke:#181818;stroke-width:1;"/><line style="stroke:#181818;stroke-width:1;stroke-dasharray:2,2;" x1="321.8291" x2="523.0581" y1="713.3828" y2="713.3828"/><text fill="#000000" font-family="sans-serif" font-size="13" lengthAdjust="spacing" textLength="127.0737" x="333.8291" y="708.3169">Upstream response</text></g><g class="message" data-entity-1="part2" data-entity-2="part1" data-source-line="31" id="msg9"><polygon fill="#181818" points="39.2651,738.5156,29.2651,742.5156,39.2651,746.5156,35.2651,742.5156" style="stroke:#181818;stroke-width:1;"/><line style="stroke:#181818;stroke-width:1;stroke-dasharray:2,2;" x1="33.2651" x2="315.8291" y1="742.5156" y2="742.5156"/><text fill="#000000" font-family="sans-serif" font-size="13" lengthAdjust="spacing" textLength="164.436" x="45.2651" y="737.4497">Return response to client</text></g><?plantuml-src NPBDQnin4CNl-rSyV2Ws9HG2BSJWGbX8sqinCMullYZQiLTOrcobaRVENz_PBplfLVFnVkzfn8adhBdznbX75h925PufSOwMy6WjfOGdpsrH62iSKNf7GM0Iog8nKPnrZT67MRzarXNMxmlR9aaaSyA6ufbYtx8jYjKAFu8JPxpg_ScK1FEVIf5VNpqji5eLHOcxhrWlh_NcIXX7mbsOjqvgpbhi1v7OPt4S5aNGPaHtg0MyHxc4RWySB7sQUc14ZAsfAeerxbHBcpPY9AivhWZt3m-O_pOnk71OxCA0jiJioOLgM0MfZU1aZfHsOVFzyVxp5zGcrKYY4Q1ZGsh8khspQ5IEOfZzHwO6ozfuJ-50SC7wN552PSJWmpJJnpL6ls5_reQ1vfQJih_XEZk3bvXLPyz3JfPFJLPpwbiZRpaU5_tMPv9u6KWtKoxlm-_ghBYk6up3N-p2nslKc0-QKvgBFiv--1T5jx-CJ5F_BfGrsIF6l4QBcgBO-ZPQThjmDjwDdjH3gbbJ5NSY1GuLjvFKTjcTxz_BX8Sy7jru83T-oq4qHHtSzb-kIjS3rQjgE2HwSmxgFYlRL84mRFyD_m00?></g></svg>
